<svg width="100" height="100" viewBox="0 0 100 100" fill="none" xmlns="http://www.w3.org/2000/svg">
<path d="M87.6171 58.7109C87.4157 58.0618 87.0107 57.4947 86.4619 57.0937C85.9132 56.6927 85.2499 56.479 84.5702 56.4844L83.7108 56.6406C78.1158 58.1849 72.2112 58.2175 66.5995 56.7349C60.9877 55.2524 55.8697 52.3078 51.7674 48.2016C47.6652 44.0953 44.7255 38.9744 43.2484 33.3613C41.7713 27.7481 41.8095 21.8436 43.3593 16.25C43.4358 16.0234 43.4754 15.786 43.4765 15.5469C43.5136 15.0428 43.4263 14.5372 43.2223 14.0747C43.0183 13.6123 42.7038 13.207 42.3065 12.8945C41.9091 12.582 41.4411 12.372 40.9436 12.2827C40.446 12.1935 39.9342 12.2279 39.453 12.3828C32.8859 14.2235 26.9151 17.7516 22.1347 22.616C17.3542 27.4805 13.9307 33.5118 12.2047 40.11C10.4787 46.7082 10.5103 53.6434 12.2964 60.2256C14.0825 66.8078 17.5609 72.8076 22.3855 77.6283C27.21 82.449 33.2127 85.9225 39.7964 87.7032C46.38 89.484 53.3152 89.51 59.912 87.7786C66.5088 86.0472 72.5373 82.6188 77.3979 77.8344C82.2585 73.0501 85.7817 67.0764 87.6171 60.5078C87.8136 59.925 87.8136 59.2938 87.6171 58.7109ZM49.9999 82.8125C42.5156 82.8185 35.2541 80.2657 29.42 75.5776C23.586 70.8894 19.5299 64.3477 17.9247 57.0376C16.3195 49.7274 17.2616 42.0882 20.5947 35.387C23.9278 28.6859 29.4516 23.3256 36.2499 20.1953C35.5143 26.0907 36.1346 32.0762 38.0633 37.6955C39.992 43.3148 43.1784 48.4196 47.3793 52.6205C51.5803 56.8215 56.6851 60.0079 62.3044 61.9366C67.9237 63.8653 73.9092 64.4856 79.8046 63.75C77.1616 69.4312 72.9544 74.2417 67.6758 77.6178C62.3972 80.9939 56.2658 82.7958 49.9999 82.8125Z" fill="#161E40"/>
</svg>
