<svg width="100" height="100" viewBox="0 0 100 100" fill="none" xmlns="http://www.w3.org/2000/svg">
<path d="M50 20C44.0666 20 38.2664 21.7595 33.3329 25.0559C28.3994 28.3524 24.5542 33.0377 22.2836 38.5195C20.013 44.0013 19.4189 50.0333 20.5764 55.8527C21.734 61.6721 24.5912 67.0176 28.7868 71.2132C32.9824 75.4088 38.3279 78.266 44.1473 79.4236C49.9667 80.5811 55.9987 79.987 61.4805 77.7164C66.9623 75.4458 71.6476 71.6006 74.9441 66.6671C78.2405 61.7336 80 55.9334 80 50C79.989 42.0469 76.8247 34.4227 71.201 28.799C65.5773 23.1753 57.9531 20.011 50 20ZM50 70C46.0444 70 42.1776 68.827 38.8886 66.6294C35.5996 64.4318 33.0362 61.3082 31.5224 57.6537C30.0087 53.9991 29.6126 49.9778 30.3843 46.0982C31.156 42.2186 33.0608 38.6549 35.8579 35.8579C38.6549 33.0608 42.2186 31.156 46.0982 30.3843C49.9778 29.6126 53.9991 30.0087 57.6537 31.5224C61.3082 33.0362 64.4318 35.5996 66.6294 38.8886C68.827 42.1776 70 46.0444 70 50C70 55.3043 67.8929 60.3914 64.1421 64.1421C60.3914 67.8929 55.3043 70 50 70ZM45 8.33333V5C45 3.67392 45.5268 2.40215 46.4645 1.46447C47.4021 0.526784 48.6739 0 50 0C51.3261 0 52.5978 0.526784 53.5355 1.46447C54.4732 2.40215 55 3.67392 55 5V8.33333C55 9.65942 54.4732 10.9312 53.5355 11.8689C52.5978 12.8065 51.3261 13.3333 50 13.3333C48.6739 13.3333 47.4021 12.8065 46.4645 11.8689C45.5268 10.9312 45 9.65942 45 8.33333ZM75.9167 24.0833C75.4505 23.6188 75.0807 23.0669 74.8283 22.4591C74.576 21.8513 74.4461 21.1997 74.4461 20.5417C74.4461 19.8836 74.576 19.232 74.8283 18.6242C75.0807 18.0165 75.4505 17.4645 75.9167 17L78.2917 14.625C79.231 13.6857 80.5049 13.158 81.8333 13.158C83.1617 13.158 84.4357 13.6857 85.375 14.625C86.3143 15.5643 86.842 16.8383 86.842 18.1667C86.842 19.495 86.3143 20.769 85.375 21.7083L83 24.0833C82.5345 24.5473 81.9821 24.9148 81.3743 25.1651C80.7666 25.4153 80.1155 25.5433 79.4583 25.5417C78.1328 25.5359 76.8619 25.0126 75.9167 24.0833ZM100 50C100 51.3261 99.4732 52.5978 98.5355 53.5355C97.5978 54.4732 96.3261 55 95 55H91.6667C90.3406 55 89.0688 54.4732 88.1311 53.5355C87.1935 52.5978 86.6667 51.3261 86.6667 50C86.6667 48.6739 87.1935 47.4021 88.1311 46.4645C89.0688 45.5268 90.3406 45 91.6667 45H95C96.3261 45 97.5978 45.5268 98.5355 46.4645C99.4732 47.4021 100 48.6739 100 50ZM85.375 78.2917C86.2964 79.2404 86.8118 80.5108 86.8118 81.8333C86.8118 83.1558 86.2964 84.4263 85.375 85.375C84.4249 86.2969 83.1571 86.8189 81.8333 86.8333C81.1761 86.8349 80.525 86.707 79.9173 86.4567C79.3096 86.2065 78.7572 85.8389 78.2917 85.375L75.9167 83C74.9774 82.0607 74.4497 80.7867 74.4497 79.4583C74.4497 78.1299 74.9774 76.856 75.9167 75.9167C76.856 74.9774 78.1299 74.4497 79.4583 74.4497C80.7867 74.4497 82.0607 74.9774 83 75.9167L85.375 78.2917ZM55 91.6667V95C55 96.3261 54.4732 97.5978 53.5355 98.5355C52.5978 99.4732 51.3261 100 50 100C48.6739 100 47.4021 99.4732 46.4645 98.5355C45.5268 97.5978 45 96.3261 45 95V91.6667C45 90.3406 45.5268 89.0688 46.4645 88.1311C47.4021 87.1935 48.6739 86.6667 50 86.6667C51.3261 86.6667 52.5978 87.1935 53.5355 88.1311C54.4732 89.0688 55 90.3406 55 91.6667ZM24.0833 75.9167C24.5495 76.3812 24.9193 76.9331 25.1717 77.5409C25.424 78.1487 25.5539 78.8003 25.5539 79.4583C25.5539 80.1164 25.424 80.768 25.1717 81.3758C24.9193 81.9835 24.5495 82.5355 24.0833 83L21.7083 85.375C21.2428 85.8389 20.6904 86.2065 20.0827 86.4567C19.475 86.707 18.8239 86.8349 18.1667 86.8333C16.8429 86.8189 15.5751 86.2969 14.625 85.375C13.7036 84.4263 13.1882 83.1558 13.1882 81.8333C13.1882 80.5108 13.7036 79.2404 14.625 78.2917L17 75.9167C17.4645 75.4505 18.0165 75.0807 18.6242 74.8283C19.232 74.576 19.8836 74.4461 20.5417 74.4461C21.1997 74.4461 21.8513 74.576 22.4591 74.8283C23.0669 75.0807 23.6188 75.4505 24.0833 75.9167ZM13.3333 50C13.3333 51.3261 12.8065 52.5978 11.8689 53.5355C10.9312 54.4732 9.65942 55 8.33333 55H5C3.67392 55 2.40215 54.4732 1.46447 53.5355C0.526784 52.5978 0 51.3261 0 50C0 48.6739 0.526784 47.4021 1.46447 46.4645C2.40215 45.5268 3.67392 45 5 45H8.33333C9.65942 45 10.9312 45.5268 11.8689 46.4645C12.8065 47.4021 13.3333 48.6739 13.3333 50ZM14.625 21.7083C13.6857 20.769 13.158 19.495 13.158 18.1667C13.158 16.8383 13.6857 15.5643 14.625 14.625C15.5643 13.6857 16.8383 13.158 18.1667 13.158C19.495 13.158 20.769 13.6857 21.7083 14.625L24.0833 17C24.5495 17.4645 24.9193 18.0165 25.1717 18.6242C25.424 19.232 25.5539 19.8836 25.5539 20.5417C25.5539 21.1997 25.424 21.8513 25.1717 22.4591C24.9193 23.0669 24.5495 23.6188 24.0833 24.0833C23.1381 25.0126 21.8672 25.5359 20.5417 25.5417C19.8845 25.5433 19.2334 25.4153 18.6257 25.1651C18.0179 24.9148 17.4655 24.5473 17 24.0833L14.625 21.7083Z" fill="white"/>
</svg>
